<?xml version="1.0" encoding="UTF-8"?>
<svg version="1.1" xmlns="http://www.w3.org/2000/svg" width="1035" height="997">
<path d="M0 0 C2.89669 1.38031787 5.66860557 2.88340891 8.45166016 4.48120117 C9.57523926 5.12452393 10.69881836 5.76784668 11.85644531 6.43066406 C13.06924612 7.1296749 14.2819721 7.82881556 15.49462891 8.52807617 C16.75672869 9.25279097 18.01893722 9.97731642 19.28125 10.70166016 C28.12489253 15.7818218 36.94080857 20.9093322 45.74438477 26.05859375 C56.26957639 32.21431258 66.83434871 38.3008651 77.39990234 44.38696289 C83.91084147 48.13835641 90.41876085 51.89498612 96.92724609 55.65063477 C102.36798227 58.78989863 107.80944368 61.92789114 113.25244141 65.06323242 C124.26160045 71.40627408 135.26269516 77.76300361 146.24462891 84.15307617 C147.28055176 84.75450439 148.31647461 85.35593262 149.38378906 85.97558594 C150.80183838 86.80207642 150.80183838 86.80207642 152.24853516 87.64526367 C153.08328369 88.1310791 153.91803223 88.61689453 154.77807617 89.11743164 C156.68212891 90.27807617 156.68212891 90.27807617 157.68212891 91.27807617 C157.79969287 93.64215325 157.85218071 95.97785439 157.86294556 98.3433075 C157.87375233 99.46529949 157.87375233 99.46529949 157.88477743 100.60995799 C157.90763703 103.13562723 157.92311361 105.6612865 157.93847656 108.18701172 C157.95291716 109.99021145 157.96767468 111.79340867 157.98272705 113.59660339 C158.11310228 130.07110121 158.17887407 146.54628513 158.23056984 163.02119732 C158.26949496 175.20558839 158.33786317 187.38905611 158.44511759 199.57304162 C158.51793291 208.13273021 158.55639882 216.69216604 158.56959569 225.25215179 C158.57846944 230.36799809 158.60279052 235.48270396 158.66426468 240.59821129 C158.72146057 245.41257377 158.73619875 250.22520655 158.71839142 255.03985786 C158.71927073 256.80639238 158.73556258 258.57299694 158.76843643 260.33922577 C159.00426803 273.70420044 159.00426803 273.70420044 155.70559406 277.63094521 C153.40482297 279.19358224 151.26665701 280.2721584 148.68212891 281.27807617 C147.77390381 281.82334961 146.86567871 282.36862305 145.92993164 282.93041992 C145.16624268 283.35452148 144.40255371 283.77862305 143.61572266 284.21557617 C142.73102295 284.71041504 141.84632324 285.20525391 140.93481445 285.71508789 C140.00580322 286.23087402 139.07679199 286.74666016 138.11962891 287.27807617 C129.99267047 291.83064443 121.9078498 296.4455547 113.86962891 301.15307617 C102.26274843 307.94700173 90.61819886 314.67397529 78.96435547 321.38696289 C73.53552952 324.51487763 68.10890884 327.64661348 62.68212891 330.77807617 C56.15979616 334.54171537 49.63699128 338.30452239 43.11181641 342.06323242 C42.02731201 342.6885083 40.94280762 343.31378418 39.82543945 343.95800781 C37.66413585 345.20293289 35.50155701 346.44564692 33.33764648 347.68603516 C27.81300519 350.85998007 22.32886169 354.08536589 16.88916016 357.40307617 C15.7942627 358.06364014 14.69936523 358.7242041 13.57128906 359.40478516 C11.48231834 360.66782076 9.40203918 361.94537807 7.33203125 363.23925781 C6.39955566 363.79991943 5.46708008 364.36058105 4.50634766 364.93823242 C3.69254639 365.4397583 2.87874512 365.94128418 2.0402832 366.45800781 C-0.31787109 367.27807617 -0.31787109 367.27807617 -2.79980469 366.59716797 C-3.6307666 366.16186768 -4.46172852 365.72656738 -5.31787109 365.27807617 C-6.54630737 364.63950684 -6.54630737 364.63950684 -7.79956055 363.98803711 C-8.66798584 363.50109375 -9.53641113 363.01415039 -10.43115234 362.51245117 C-11.9131311 361.6830603 -11.9131311 361.6830603 -13.42504883 360.83691406 C-15.01168335 359.94153931 -15.01168335 359.94153931 -16.63037109 359.02807617 C-17.73904541 358.40473389 -18.84771973 357.7813916 -19.98999023 357.13916016 C-29.45727986 351.79934312 -38.85087074 346.33684592 -48.22802734 340.84057617 C-54.53357529 337.14594307 -60.86081546 333.48954936 -67.19287109 329.84057617 C-68.2730249 329.21803955 -69.35317871 328.59550293 -70.46606445 327.95410156 C-72.65583443 326.69230791 -74.84569464 325.43067083 -77.03564453 324.16918945 C-82.46447052 321.04127469 -87.89106391 317.90949169 -93.31787109 314.77807617 C-95.48452692 313.52805738 -97.65119359 312.27805739 -99.81787109 311.02807617 C-112.8178711 303.52807617 -112.8178711 303.52807617 -116.07373047 301.6496582 C-118.22082245 300.41097615 -120.36795724 299.17236827 -122.51513672 297.93383789 C-127.61375918 294.99274267 -132.71192405 292.05086204 -137.80859375 289.10638428 C-140.22834774 287.70849017 -142.64834372 286.31101528 -145.06835938 284.91357422 C-146.78588161 283.92155293 -148.50305161 282.92892188 -150.22021484 281.9362793 C-151.25275391 281.34008789 -152.28529297 280.74389648 -153.34912109 280.12963867 C-154.26242187 279.60192871 -155.17572266 279.07421875 -156.11669922 278.53051758 C-157.49775801 277.74471106 -158.89665605 276.9886837 -160.31787109 276.27807617 C-160.62164349 252.2956533 -160.85084013 228.31351897 -160.99142933 204.32955933 C-161.05844514 193.1930915 -161.1497951 182.0578194 -161.29858398 170.92211914 C-161.4282182 161.21536494 -161.51204072 151.50947662 -161.54102153 141.80188084 C-161.55796211 136.66188417 -161.59771974 131.52436437 -161.69236183 126.38516235 C-161.78077407 121.54492348 -161.80779369 116.70817432 -161.78827095 111.86720467 C-161.79184053 110.09333362 -161.81761607 108.3193431 -161.86754227 106.54617119 C-162.01110305 101.18333054 -161.96000824 96.41832724 -160.31787109 91.27807617 C-156.38295219 87.38153787 -152.40536117 85.4837532 -147.31787109 83.27807617 C-145.28948678 82.12406314 -143.27267483 80.94915128 -141.27490234 79.74291992 C-139.22782635 78.56522268 -137.17961288 77.3895008 -135.13037109 76.21557617 C-133.42744328 75.23656504 -131.7245173 74.2575507 -130.021698 73.27835083 C-128.27391649 72.27360318 -126.52566513 71.26967703 -124.77734375 70.26586914 C-119.28647872 67.11084987 -113.80239765 63.94409654 -108.31787109 60.77807617 C-106.15123969 59.52801506 -103.98457295 58.27801517 -101.81787109 57.02807617 C-100.74537109 56.40932617 -99.67287109 55.79057617 -98.56787109 55.15307617 C-62.81787109 34.52807617 -62.81787109 34.52807617 -59.56518555 32.65161133 C-57.40737307 31.40666336 -55.24965757 30.16154727 -53.09204102 28.91625977 C-47.54070517 25.71254966 -41.98750568 22.51213987 -36.43115234 19.31713867 C-35.3002417 18.66608154 -34.16933105 18.01502441 -33.00415039 17.34423828 C-30.78415665 16.06692659 -28.56299512 14.79164203 -26.34057617 13.51855469 C-21.68535271 10.84311831 -17.0585849 8.15008868 -12.52880859 5.26635742 C-11.83489014 4.82855957 -11.14097168 4.39076172 -10.42602539 3.93969727 C-8.66482141 2.81720117 -6.91828236 1.67178159 -5.17333984 0.52416992 C-2.31787109 -0.72192383 -2.31787109 -0.72192383 0 0 Z " fill="#05CE78" transform="translate(701.31787109375,0.721923828125)"/>
<path d="M0 0 C2.68701172 1.26831055 2.68701172 1.26831055 5.4296875 2.88671875 C6.4594873 3.48798584 7.48928711 4.08925293 8.55029297 4.70874023 C9.64744629 5.36173096 10.74459961 6.01472168 11.875 6.6875 C13.03869479 7.3707773 14.20292949 8.05313582 15.36767578 8.73461914 C17.75843708 10.13527028 20.14615248 11.54089806 22.53125 12.95117188 C27.63359857 15.96754369 32.75495088 18.95130792 37.875 21.9375 C38.84550293 22.5049292 39.81600586 23.0723584 40.81591797 23.65698242 C48.51615442 28.1537142 56.25280673 32.58493003 64 37 C73.72115617 42.5400173 83.40894658 48.13374809 93.06689453 53.78344727 C100.32211788 58.02617309 107.59358549 62.23988899 114.875 66.4375 C115.93726807 67.05004639 116.99953613 67.66259277 118.09399414 68.29370117 C123.23605965 71.25766791 128.37972883 74.21882468 133.52557373 77.17622375 C135.95334268 78.57181471 138.38043248 79.96858415 140.80743408 81.36550903 C142.53418688 82.35871466 144.26195832 83.35014865 145.98974609 84.34155273 C147.02566895 84.93782471 148.0615918 85.53409668 149.12890625 86.1484375 C150.04744385 86.67614746 150.96598145 87.20385742 151.91235352 87.74755859 C154 89 154 89 155 90 C155.09765691 92.39068137 155.12996979 94.75243267 155.12025452 97.14356995 C155.12153615 98.27803736 155.12153615 98.27803736 155.12284368 99.43542331 C155.12450076 101.98895482 155.11897342 104.54242173 155.11352539 107.09594727 C155.11324354 108.91873167 155.11340121 110.7415162 155.1139679 112.56430054 C155.11425596 117.52896888 155.10835779 122.49361328 155.10139394 127.45827603 C155.09516188 132.64063475 155.09455672 137.82299395 155.09336853 143.00535583 C155.09025478 152.82617558 155.08204079 162.64698426 155.07201904 172.46779913 C155.06085927 183.64535906 155.0553478 194.82291952 155.05032361 206.00048363 C155.03985822 229.00032857 155.02225792 252.00016367 155 275 C154.28686142 275.39824478 153.57372284 275.79648956 152.838974 276.20680237 C150.15304822 277.70726489 147.46755344 279.20849529 144.78233337 280.71022034 C143.06464459 281.67055196 141.3464755 282.63002433 139.6282959 283.58947754 C133.56972243 286.97850939 127.53334902 290.39600837 121.5625 293.9375 C120.86624008 294.35030716 120.16998016 294.76311432 119.45262146 295.18843079 C118.81856888 295.56452988 118.1845163 295.94062897 117.53125 296.328125 C111.90132145 299.66001908 106.2308083 302.92147673 100.5625 306.1875 C99.45527588 306.82550537 98.34805176 307.46351074 97.20727539 308.12084961 C94.93662932 309.42889477 92.66587642 310.73675448 90.39501953 312.04443359 C84.9283002 315.19332054 79.46425113 318.34683264 74 321.5 C71.83334689 322.7500235 69.66668021 324.00002347 67.5 325.25 C66.4275 325.86875 65.355 326.4875 64.25 327.125 C54.5 332.75 54.5 332.75 51.24658203 334.62695312 C49.09128689 335.8704051 46.93601327 337.11389436 44.78076172 338.35742188 C39.77662326 341.24462875 34.7722948 344.1315043 29.76715088 347.01696777 C28.01658759 348.02619104 26.26609589 349.03553836 24.515625 350.04492188 C22.33607835 351.3016766 20.15640168 352.55820586 17.9765625 353.81445312 C16.97625 354.39130859 15.9759375 354.96816406 14.9453125 355.5625 C13.96852539 356.119375 12.99173828 356.67625 11.98535156 357.25 C9.89298975 358.47653332 7.82891001 359.75200427 5.78808594 361.0625 C4.74168945 361.7225 3.69529297 362.3825 2.6171875 363.0625 C1.68245605 363.67222656 0.74772461 364.28195312 -0.21533203 364.91015625 C-3 366 -3 366 -6.04345703 365.35424805 C-8.77070745 364.10502773 -11.34409543 362.80166109 -13.921875 361.26953125 C-14.85112793 360.72176025 -15.78038086 360.17398926 -16.73779297 359.60961914 C-17.73182129 359.01656982 -18.72584961 358.42352051 -19.75 357.8125 C-21.91367549 356.53580222 -24.07775166 355.25978329 -26.2421875 353.984375 C-27.35819336 353.32501953 -28.47419922 352.66566406 -29.62402344 351.98632812 C-35.0212633 348.81074644 -40.44764 345.6862344 -45.875 342.5625 C-48.05991376 341.30341652 -50.24480949 340.04430177 -52.4296875 338.78515625 C-53.51475586 338.16012207 -54.59982422 337.53508789 -55.71777344 336.89111328 C-61.14659942 333.76319852 -66.57319281 330.63141552 -72 327.5 C-74.16665583 326.24998121 -76.3333225 324.99998122 -78.5 323.75 C-85 320 -85 320 -91.5 316.25 C-92.57266113 315.63116943 -93.64532227 315.01233887 -94.75048828 314.37475586 C-96.91557071 313.12564482 -99.08060982 311.87645871 -101.24560547 310.62719727 C-106.68615706 307.48797691 -112.12747216 304.35009437 -117.5703125 301.21484375 C-129.60592149 294.27988723 -141.62563611 287.31922349 -153.61376953 280.30249023 C-154.55591309 279.75149658 -155.49805664 279.20050293 -156.46875 278.6328125 C-157.29826172 278.14699707 -158.12777344 277.66118164 -158.98242188 277.16064453 C-160.30046576 276.40241841 -161.6399569 275.68002155 -163 275 C-163.3037724 251.01757713 -163.53296903 227.0354428 -163.67355824 203.05148315 C-163.74057405 191.91501533 -163.83192401 180.77974323 -163.98071289 169.64404297 C-164.11034711 159.93728877 -164.19416963 150.23140044 -164.22315043 140.52380466 C-164.24009102 135.383808 -164.27984865 130.24628819 -164.37449074 125.10708618 C-164.46290298 120.26684731 -164.48992259 115.43009815 -164.47039986 110.58912849 C-164.47396943 108.81525744 -164.49974497 107.04126693 -164.54967117 105.26809502 C-164.69322856 99.90538127 -164.64025746 95.14064839 -163 90 C-159.06939328 86.09701468 -155.08704835 84.20970267 -150 82 C-147.82641066 80.77218026 -145.66419832 79.52376158 -143.51953125 78.24609375 C-141.28500298 76.97454154 -139.04928614 75.70507618 -136.8125 74.4375 C-134.34182403 73.03234523 -131.87211894 71.62548727 -129.40234375 70.21875 C-128.78224426 69.86582382 -128.16214478 69.51289764 -127.52325439 69.14927673 C-121.29361915 65.60215944 -115.0824978 62.02320336 -108.875 58.4375 C-107.81128174 57.82318115 -106.74756348 57.2088623 -105.65161133 56.57592773 C-103.50690413 55.33707777 -101.3622912 54.09806459 -99.21777344 52.85888672 C-93.81329355 49.73675395 -88.40652588 46.61858796 -83 43.5 C-80.8333225 42.25001878 -78.66665583 41.00001879 -76.5 39.75 C-63.5 32.25 -63.5 32.25 -60.24658203 30.37304688 C-58.09128689 29.1295949 -55.93601327 27.88610564 -53.78076172 26.64257812 C-48.77662326 23.75537125 -43.7722948 20.8684957 -38.76715088 17.98303223 C-37.01658759 16.97380896 -35.26609589 15.96446164 -33.515625 14.95507812 C-31.33607835 13.6983234 -29.15640168 12.44179414 -26.9765625 11.18554688 C-25.47609375 10.32026367 -25.47609375 10.32026367 -23.9453125 9.4375 C-22.96852539 8.87933594 -21.99173828 8.32117188 -20.98535156 7.74609375 C-18.89766292 6.5250315 -16.8333069 5.26358928 -14.78808594 3.97265625 C-13.74168945 3.32167969 -12.69529297 2.67070313 -11.6171875 2 C-10.68245605 1.401875 -9.74772461 0.80375 -8.78466797 0.1875 C-5.29095302 -1.30236757 -3.62015844 -1.05144308 0 0 Z " fill="#05CE78" transform="translate(704,631)"/>
<path d="M0 0 C3.33711833 1.4234257 6.47192491 3.20246628 9.62451172 4.98706055 C10.40890625 5.42703369 11.19330078 5.86700684 12.00146484 6.3203125 C20.56949535 11.14939962 29.05194413 16.1262471 37.53857422 21.09643555 C43.92733163 24.83590644 50.33567248 28.54081089 56.74951172 32.23706055 C57.82910156 32.8592749 58.90869141 33.48148926 60.02099609 34.12255859 C62.21133692 35.38467571 64.40176674 36.6466384 66.59228516 37.90844727 C72.02111114 41.03636203 77.44770453 44.16814503 82.87451172 47.29956055 C85.04116755 48.54957934 87.20783422 49.79957933 89.37451172 51.04956055 C93.70784505 53.54956055 98.04117839 56.04956055 102.37451172 58.54956055 C103.44830078 59.16903564 104.52208984 59.78851074 105.62841797 60.42675781 C107.78212892 61.66932074 109.93577538 62.91199543 112.08935547 64.15478516 C117.11135434 67.05270678 122.13393979 69.94959404 127.15893555 72.84231567 C128.92496694 73.85903253 130.69078603 74.87611713 132.45654297 75.89331055 C134.66185327 77.16356928 136.86755388 78.43315073 139.07373047 79.7019043 C140.08048828 80.28198242 141.08724609 80.86206055 142.12451172 81.4597168 C142.99591797 81.96124268 143.86732422 82.46276855 144.76513672 82.97949219 C145.79123047 83.58011475 146.81732422 84.1807373 147.87451172 84.79956055 C148.68102708 85.08788789 149.48754244 85.37621523 150.31849766 85.67327976 C153.49730991 87.03706946 155.4937845 88.26801636 157.87451172 90.79956055 C159.45535554 96.6048299 159.27431205 102.35430473 159.21606445 108.33618164 C159.2345342 110.14676987 159.25720912 111.95731936 159.2837677 113.76780701 C159.34214435 118.67957695 159.33684784 123.58935133 159.31656146 128.50135374 C159.30526632 132.6043204 159.32474582 136.70690709 159.34411103 140.80982554 C159.38920425 150.49130243 159.38251235 160.1717971 159.34301758 169.85327148 C159.30314018 179.83473124 159.34709827 189.81330722 159.43303341 199.79441202 C159.50408277 208.36974438 159.52458549 216.9441752 159.5043655 225.51977789 C159.49270199 230.63915602 159.49970176 235.7567308 159.55465508 240.87586594 C159.60401864 245.692109 159.59003187 250.50413808 159.52784538 255.32019234 C159.51548134 257.08418668 159.52513375 258.84849799 159.55876541 260.61221504 C159.65270855 265.95345007 159.55049604 270.6945824 157.87451172 275.79956055 C153.93904665 279.68697737 149.95138789 281.58505723 144.87451172 283.79956055 C142.65629786 285.01007646 140.49689432 286.29701158 138.32373047 287.58862305 C136.07088518 288.86913727 133.81694492 290.14772666 131.56201172 291.42456055 C129.08841534 292.83046374 126.61605853 294.2385362 124.14404297 295.6472168 C123.52843506 295.99789719 122.91282715 296.34857758 122.27856445 296.70988464 C116.4128687 300.05518246 110.57751696 303.45155493 104.74951172 306.86206055 C93.24590482 313.59184735 81.70527653 320.2561188 70.15673828 326.90844727 C64.72791228 330.03636204 59.30133231 333.16816821 53.87451172 336.29956055 C51.72347543 337.54045529 49.57243375 338.78134068 47.42138672 340.0222168 C41.78348829 343.27478523 36.14635538 346.52867715 30.51000977 349.78393555 C28.28344529 351.0684611 26.05577317 352.35106893 23.8269043 353.6315918 C19.29709687 356.23501769 14.77489139 358.84304336 10.30810547 361.5534668 C9.65874023 361.94219971 9.009375 362.33093262 8.34033203 362.73144531 C6.72432932 363.70206748 5.11724939 364.68750667 3.51123047 365.67456055 C0.31774531 367.03711421 -0.82603219 366.70796869 -4.12548828 365.79956055 C-6.42358398 364.71484375 -6.42358398 364.71484375 -8.80126953 363.3503418 C-9.69885986 362.83938965 -10.5964502 362.3284375 -11.52124023 361.80200195 C-12.96503052 360.96548096 -12.96503052 360.96548096 -14.43798828 360.11206055 C-15.96008911 359.24073486 -15.96008911 359.24073486 -17.51293945 358.35180664 C-26.6930748 353.08443487 -35.83111909 347.74371431 -44.96533203 342.3972168 C-54.56491066 336.78277379 -64.2068478 331.24155735 -73.84326172 325.69067383 C-79.2720877 322.56275906 -84.69868109 319.43097607 -90.12548828 316.29956055 C-92.29214411 315.04954176 -94.45881078 313.79954176 -96.62548828 312.54956055 C-100.95882161 310.04956055 -105.29215495 307.54956055 -109.62548828 305.04956055 C-110.69968018 304.42984375 -111.77387207 303.81012695 -112.88061523 303.17163086 C-115.03022463 301.93145293 -117.17980187 300.69121928 -119.3293457 299.45092773 C-124.3985804 296.52605825 -129.46813764 293.60175222 -134.53884888 290.67944336 C-136.92975425 289.30149117 -139.320475 287.92321882 -141.71118164 286.54492188 C-143.39532791 285.57415072 -145.0797406 284.6038418 -146.76416016 283.63354492 C-147.78703125 283.04379883 -148.80990234 282.45405273 -149.86376953 281.84643555 C-150.76135986 281.32919922 -151.6589502 280.81196289 -152.58374023 280.27905273 C-153.84190552 279.5467041 -153.84190552 279.5467041 -155.12548828 278.79956055 C-155.99051059 278.42634265 -156.85553289 278.05312475 -157.746768 277.66859722 C-160.12548828 275.79956055 -160.12548828 275.79956055 -160.74072742 272.5412035 C-160.76177494 271.16611605 -160.75492227 269.79044173 -160.72676086 268.41548157 C-160.73103299 267.65746111 -160.73530511 266.89944064 -160.7397067 266.11844987 C-160.74796306 263.57055876 -160.72041014 261.02430267 -160.69311523 258.4765625 C-160.69170533 256.65348347 -160.69249562 254.8304016 -160.69532776 253.00732422 C-160.69676556 248.05080099 -160.66731697 243.09487966 -160.63245797 238.13849664 C-160.601255 232.96151781 -160.59826852 227.78452601 -160.59233093 222.60746765 C-160.57677465 212.80075276 -160.53572201 202.99431573 -160.48558348 193.18772334 C-160.42974553 182.02466477 -160.40221748 170.8615931 -160.37710631 159.6984297 C-160.32480776 136.73198579 -160.23683078 113.76578872 -160.12548828 90.79956055 C-159.35489358 90.37247519 -159.35489358 90.37247519 -158.56873131 89.93676186 C-156.2128399 88.63066105 -153.85739371 87.32375934 -151.50195312 86.0168457 C-150.28988441 85.3451107 -150.28988441 85.3451107 -149.05332947 84.6598053 C-142.90327082 81.2463616 -136.8098287 77.74666079 -130.75048828 74.17456055 C-121.90927548 68.98940193 -113.03125142 63.87267036 -104.12548828 58.79956055 C-94.40405123 53.26004216 -84.71653511 47.6658086 -75.05859375 42.01611328 C-64.55503393 35.87381795 -54.01269754 29.79930192 -43.46923828 23.72583008 C-38.85771403 21.06922039 -34.24696688 18.41126497 -29.63671875 15.75244141 C-27.45883946 14.49643157 -25.28079322 13.24071116 -23.10253906 11.98535156 C-22.10206543 11.40841553 -21.1015918 10.83147949 -20.07080078 10.23706055 C-18.6094873 9.39981445 -18.6094873 9.39981445 -17.11865234 8.5456543 C-15.01033004 7.3157423 -12.91990027 6.05490101 -10.84326172 4.7722168 C-9.77881836 4.12124023 -8.714375 3.47026367 -7.61767578 2.79956055 C-6.65974121 2.20143555 -5.70180664 1.60331055 -4.71484375 0.98706055 C-2.12548828 -0.20043945 -2.12548828 -0.20043945 0 0 Z " fill="#05CE78" transform="translate(877.12548828125,315.200439453125)"/>
<path d="M0 0 C2.75750519 0.83197252 4.89375891 1.90682609 7.36352539 3.38500977 C8.28584961 3.93092773 9.20817383 4.4768457 10.15844727 5.03930664 C11.15295898 5.63678711 12.1474707 6.23426758 13.17211914 6.84985352 C15.33933118 8.13368385 17.50733217 9.41618308 19.67602539 10.69750977 C20.81056152 11.36927246 21.94509766 12.04103516 23.11401367 12.7331543 C28.32469922 15.80541254 33.5842097 18.79213186 38.84231567 21.78222656 C49.15744808 27.64880115 59.43356961 33.57889102 69.67651367 39.57080078 C80.20046539 45.72502093 90.76342052 51.81105348 101.32739258 57.89624023 C106.7562186 61.02415502 112.18278513 64.15598441 117.60961914 67.28735352 C118.66455566 67.89587158 119.71949219 68.50438965 120.80639648 69.13134766 C125.90520211 72.07248892 131.00351481 75.01447678 136.1003418 77.95904541 C138.52009579 79.35693952 140.94009177 80.75441441 143.36010742 82.15185547 C145.07762966 83.14387676 146.79479966 84.13650781 148.51196289 85.12915039 C149.54450195 85.7253418 150.57704102 86.3215332 151.64086914 86.93579102 C152.55416992 87.46350098 153.4674707 87.99121094 154.40844727 88.53491211 C155.78950606 89.32071863 157.18840409 90.07674599 158.60961914 90.78735352 C158.60961914 151.83735352 158.60961914 212.88735352 158.60961914 275.78735352 C100.10961913 309.53735352 100.10961913 309.53735352 96.85913086 311.41259766 C94.69404843 312.6617087 92.52900932 313.91089481 90.36401367 315.16015625 C84.92346208 318.29937661 79.48214698 321.43725914 74.03930664 324.57250977 C64.57041994 330.02849947 55.10493784 335.48931926 45.671875 341.00708008 C40.65524198 343.94092015 35.63265865 346.86450003 30.60961914 349.78735352 C30.01356873 350.13487671 29.41751831 350.4823999 28.80340576 350.8404541 C24.9744317 353.07285404 21.14115127 355.29755003 17.30218506 357.51272583 C16.05973297 358.23116025 14.81869472 358.95204594 13.5791626 359.67550659 C11.8496961 360.68429835 10.11452537 361.68329132 8.37915039 362.68188477 C7.3850415 363.257854 6.39093262 363.83382324 5.36669922 364.42724609 C2.60594017 365.7891684 0.68237273 366.63194228 -2.39038086 366.78735352 C-5.11572266 365.67016602 -5.11572266 365.67016602 -8.08959961 363.91235352 C-9.20286621 363.26451904 -10.31613281 362.61668457 -11.46313477 361.94921875 C-12.66816074 361.22878198 -13.87307311 360.50815517 -15.07788086 359.78735352 C-16.33403502 359.05031655 -17.59104773 358.31474106 -18.84887695 357.58056641 C-21.43860257 356.06668405 -24.02381872 354.54550925 -26.60571289 353.01831055 C-32.21414226 349.70513762 -37.86755502 346.47022338 -43.51538086 343.22485352 C-45.66417882 341.98459241 -47.81261611 340.74370621 -49.96069336 339.50219727 C-56.43548108 335.76083696 -62.91274429 332.02377869 -69.39038086 328.28735352 C-71.55705836 327.0373723 -73.72372503 325.78737231 -75.89038086 324.53735352 C-76.96288086 323.91860352 -78.03538086 323.29985352 -79.14038086 322.66235352 C-82.39038086 320.78735352 -85.64038086 318.91235352 -88.89038086 317.03735352 C-89.96304199 316.41852295 -91.03570312 315.79969238 -92.14086914 315.16210938 C-94.30595157 313.91299833 -96.47099068 312.66381222 -98.63598633 311.41455078 C-104.07653792 308.27533042 -109.51785302 305.13744789 -114.96069336 302.00219727 C-125.96985241 295.65915561 -136.97094711 289.30242608 -147.95288086 282.91235352 C-148.98880371 282.31092529 -150.02472656 281.70949707 -151.09204102 281.08984375 C-152.03740723 280.5388501 -152.98277344 279.98785645 -153.95678711 279.42016602 C-154.79153564 278.93435059 -155.62628418 278.44853516 -156.48632812 277.94799805 C-158.39038086 276.78735352 -158.39038086 276.78735352 -159.39038086 275.78735352 C-159.48803777 273.39667214 -159.52035065 271.03492085 -159.51063538 268.64378357 C-159.5114898 267.88747196 -159.51234423 267.13116035 -159.51322454 266.3519302 C-159.51488162 263.79839869 -159.50935428 261.24493178 -159.50390625 258.69140625 C-159.5036244 256.86862184 -159.50378207 255.04583732 -159.50434875 253.22305298 C-159.50463682 248.25838464 -159.49873865 243.29374024 -159.4917748 238.32907748 C-159.48554274 233.14671877 -159.48493758 227.96435956 -159.48374939 222.78199768 C-159.48063563 212.96117793 -159.47242165 203.14036925 -159.4623999 193.31955439 C-159.45124013 182.14199445 -159.44572866 170.964434 -159.44070446 159.78686988 C-159.43023907 136.78702495 -159.41263878 113.78718985 -159.39038086 90.78735352 C-158.66495087 90.3692894 -157.93952087 89.95122528 -157.19210815 89.52049255 C-154.4393443 87.93385531 -151.68676305 86.34690183 -148.93429565 84.75975037 C-147.18175597 83.74930685 -145.42901564 82.73921138 -143.67626953 81.72912598 C-136.27468643 77.4608009 -128.88873491 73.16673746 -121.51538086 68.84985352 C-112.24410985 63.43030567 -102.93208267 58.08531538 -93.60192871 52.76812744 C-84.47755246 47.56690223 -75.38905312 42.30707474 -66.32348633 37.00390625 C-59.0682634 32.76118067 -51.79683119 28.54740188 -44.51538086 24.34985352 C-43.4516626 23.73658203 -42.38794434 23.12331055 -41.29199219 22.49145508 C-36.16779176 19.53819895 -31.04243367 16.58695808 -25.91638184 13.63691711 C-23.50820611 12.25075614 -21.10047387 10.86382602 -18.69281006 9.47677612 C-16.98779852 8.49496054 -15.28211416 7.51431367 -13.57641602 6.53369141 C-12.54693848 5.94064209 -11.51746094 5.34759277 -10.45678711 4.73657227 C-9.54872314 4.21409912 -8.64065918 3.69162598 -7.70507812 3.15332031 C-2.05225456 -0.18256702 -2.05225456 -0.18256702 0 0 Z " fill="#05CE78" transform="translate(518.390380859375,315.212646484375)"/>
<path d="M0 0 C2.95061348 1.58251806 5.74000264 3.33343803 8.55834961 5.14038086 C10.53265981 6.2526867 12.51457675 7.35159271 14.50366211 8.43725586 C24.38268689 13.94989586 34.24486884 19.48006829 43.97509766 25.25195312 C50.28670131 28.99385925 56.63827227 32.66470757 62.99584961 36.32788086 C64.10307373 36.96588623 65.21029785 37.6038916 66.35107422 38.26123047 C68.62172028 39.56927562 70.89247319 40.87713534 73.16333008 42.18481445 C78.63004941 45.3337014 84.09409848 48.4872135 89.55834961 51.64038086 C91.72500272 52.89040436 93.8916694 54.14040433 96.05834961 55.39038086 C100.39168294 57.89038086 104.72501628 60.39038086 109.05834961 62.89038086 C110.1327832 63.51017822 111.2072168 64.12997559 112.31420898 64.76855469 C114.46158334 66.00756125 116.60872228 67.24697589 118.75561523 68.48681641 C123.84906791 71.42764206 128.94490104 74.36410705 134.04907227 77.2862854 C136.46991581 78.67256917 138.8894285 80.06116633 141.30883789 81.44995117 C143.02482578 82.4336629 144.74274154 83.41400921 146.46069336 84.39428711 C147.49323242 84.98725586 148.52577148 85.58022461 149.58959961 86.19116211 C150.50290039 86.71363525 151.41620117 87.2361084 152.35717773 87.77441406 C154.55834961 89.14038086 154.55834961 89.14038086 156.55834961 91.14038086 C156.7513404 93.59912314 156.81892616 95.94471592 156.79885864 98.40420532 C156.80142192 99.53995438 156.80142192 99.53995438 156.80403697 100.69864786 C156.80734504 103.24914443 156.79630669 105.79938097 156.78540039 108.34985352 C156.78483656 110.17278538 156.78515228 111.99571769 156.7862854 113.81864929 C156.78686102 118.77915594 156.77507302 123.73956657 156.76113749 128.70005083 C156.74866482 133.87973072 156.74746237 139.05941263 156.74508667 144.23910522 C156.73886169 154.05282447 156.72243714 163.86649935 156.70238769 173.68019903 C156.68006031 184.85052244 156.66904323 196.02084794 156.65899682 207.1911881 C156.63807177 230.17427699 156.60287606 253.15732644 156.55834961 276.14038086 C155.89608022 276.514265 155.23381083 276.88814915 154.55147266 277.27336311 C151.5240301 278.98276163 148.49687608 280.69267048 145.46972656 282.40258789 C144.4278846 282.99074783 143.38604263 283.57890778 142.3126297 284.18489075 C135.4251958 288.07594502 128.5644738 292.00484287 121.74584961 296.01538086 C110.14019819 302.81138804 98.4944027 309.53628969 86.84057617 316.24926758 C81.41175019 319.37718234 75.9851568 322.50896534 70.55834961 325.64038086 C68.39169378 326.89039965 66.22502711 328.14039964 64.05834961 329.39038086 C62.98584961 330.00913086 61.91334961 330.62788086 60.80834961 331.26538086 C57.55834961 333.14038086 54.30834961 335.01538086 51.05834961 336.89038086 C49.98431885 337.51001709 48.91028809 338.12965332 47.80371094 338.76806641 C45.65251736 340.0091334 43.50131306 341.25018179 41.35009766 342.49121094 C36.29871962 345.4053643 31.24744651 348.31969904 26.19656372 351.23471069 C24.40768043 352.26711564 22.61876244 353.29946042 20.82983398 354.33178711 C18.58497325 355.62724034 16.34017771 356.92280656 14.09545898 358.21850586 C12.11152427 359.36332551 10.12490286 360.50350811 8.13500977 361.63793945 C6.54999447 362.56215626 4.98201434 363.51736409 3.4465332 364.52172852 C1.63256836 365.69116211 1.63256836 365.69116211 -1.44165039 367.14038086 C-5.31571193 365.96193596 -8.71116013 363.94666929 -12.21118164 361.93725586 C-13.33459961 361.29401367 -14.45801758 360.65077148 -15.61547852 359.98803711 C-16.82843534 359.2889332 -18.04132423 358.58971142 -19.25415039 357.89038086 C-20.51771142 357.16492735 -21.78138487 356.4396696 -23.04516602 355.71459961 C-31.84096222 350.66257779 -40.60544777 345.55740936 -49.35888672 340.43237305 C-57.02408437 335.95030452 -64.72692144 331.53634308 -72.44165039 327.14038086 C-82.16147224 321.60133257 -91.84814939 316.00891868 -101.50415039 310.35913086 C-108.80065326 306.09154761 -116.11677151 301.85905414 -123.44165039 297.64038086 C-132.30571236 292.53228869 -141.16202319 287.41133957 -150.00415039 282.26538086 C-151.03991211 281.6640332 -152.07567383 281.06268555 -153.14282227 280.44311523 C-154.08834961 279.89204102 -155.03387695 279.3409668 -156.00805664 278.77319336 C-156.84280518 278.28737793 -157.67755371 277.8015625 -158.53759766 277.30102539 C-160.44165039 276.14038086 -160.44165039 276.14038086 -161.44165039 275.14038086 C-161.58796135 272.79280778 -161.66957991 270.47252684 -161.70994568 268.12225342 C-161.72632255 267.37919771 -161.74269942 266.63614201 -161.75957257 265.87056947 C-161.8130599 263.36130069 -161.85887594 260.85195626 -161.90429688 258.3425293 C-161.94000511 256.55068701 -161.97585122 254.75884746 -162.01182556 252.9670105 C-162.32965013 236.56606766 -162.51502639 220.16320148 -162.66364956 203.75994492 C-162.76595041 192.73114847 -162.90952384 181.70603809 -163.15625 170.67944336 C-163.37142341 161.06119457 -163.50848514 151.44553775 -163.55226761 141.82492471 C-163.57801694 136.73364533 -163.64152145 131.64942739 -163.7982769 126.56035614 C-164.71332908 95.62127645 -164.71332908 95.62127645 -159.28730392 88.189785 C-154.15529142 83.62279346 -148.52278877 81.09104692 -142.02869606 79.01609421 C-138.50178498 77.822237 -135.66074202 76.10246137 -132.51977539 74.11694336 C-130.5777655 72.99854219 -128.63506633 71.88133698 -126.69165039 70.76538086 C-124.48850647 69.49718457 -122.28538204 68.2289544 -120.08227539 66.96069336 C-118.98463867 66.329375 -117.88700195 65.69805664 -116.75610352 65.04760742 C-111.31514474 61.91673162 -105.87859791 58.77821544 -100.44165039 55.64038086 C-98.27500541 54.39034327 -96.10833873 53.1403433 -93.94165039 51.89038086 C-92.86915039 51.27163086 -91.79665039 50.65288086 -90.69165039 50.01538086 C-78.77498372 43.14038086 -66.85831706 36.26538086 -54.94165039 29.39038086 C-53.86761963 28.77074463 -52.79358887 28.1511084 -51.68701172 27.51269531 C-49.53581815 26.27162832 -47.38461384 25.03057993 -45.23339844 23.78955078 C-40.1820204 20.87539742 -35.13074729 17.96106268 -30.0798645 15.04605103 C-28.29098121 14.01364608 -26.50206322 12.9813013 -24.71313477 11.94897461 C-22.46827403 10.65352138 -20.22347849 9.35795516 -17.97875977 8.06225586 C-15.99118709 6.91533694 -13.99695683 5.77984311 -11.99487305 4.65844727 C-9.47926339 3.24239353 -9.47926339 3.24239353 -7.54077148 1.6184082 C-4.89101416 -0.43536937 -3.19682041 -1.12548792 0 0 Z " fill="#05CE78" transform="translate(343.441650390625,0.859619140625)"/>
<path d="M0 0 C3.41122942 0.8777279 5.93237049 2.11369135 8.97167969 3.88720703 C10.63674561 4.84929077 10.63674561 4.84929077 12.33544922 5.83081055 C13.53198172 6.53436802 14.72843136 7.23806642 15.92480469 7.94189453 C17.17673136 8.66926233 18.42918162 9.3957296 19.68212891 10.12133789 C22.25956456 11.61564907 24.83407119 13.11482284 27.40625 14.61816406 C31.9625212 17.27964887 36.53587276 19.91123064 41.109375 22.54296875 C44.32313183 24.39282174 47.53448945 26.24677286 50.74511719 28.10205078 C57.2199049 31.84341109 63.69716812 35.58046936 70.17480469 39.31689453 C72.34148219 40.56687575 74.50814886 41.81687574 76.67480469 43.06689453 C77.74730469 43.68564453 78.81980469 44.30439453 79.92480469 44.94189453 C84.79980469 47.75439453 84.79980469 47.75439453 89.67480469 50.56689453 C90.74762695 51.18580566 91.82044922 51.8047168 92.92578125 52.44238281 C95.08927945 53.69060487 97.25269112 54.93897692 99.41601562 56.1875 C104.88045486 59.34094709 110.34644114 62.49165549 115.81542969 65.63720703 C126.48336145 71.77599628 137.13531165 77.93974977 147.73730469 84.19189453 C148.67799805 84.74570801 149.61869141 85.29952148 150.58789062 85.87011719 C151.87034668 86.62881104 151.87034668 86.62881104 153.17871094 87.40283203 C153.92967041 87.84675293 154.68062988 88.29067383 155.4543457 88.74804688 C157.17480469 89.81689453 157.17480469 89.81689453 158.17480469 90.81689453 C158.2724616 93.2075759 158.30477448 95.5693272 158.2950592 97.96046448 C158.29634084 99.09493189 158.29634084 99.09493189 158.29764837 100.25231785 C158.29930545 102.80584935 158.29377811 105.35931626 158.28833008 107.9128418 C158.28804823 109.7356262 158.28820589 111.55841073 158.28877258 113.38119507 C158.28906065 118.34586341 158.28316248 123.31050781 158.27619863 128.27517056 C158.26996657 133.45752928 158.26936141 138.63988848 158.26817322 143.82225037 C158.26505946 153.64307012 158.25684548 163.46387879 158.24682373 173.28469366 C158.23566396 184.46225359 158.23015249 195.63981405 158.22512829 206.81737816 C158.2146629 229.8172231 158.19706261 252.8170582 158.17480469 275.81689453 C102.92480469 307.69189453 102.92480469 307.69189453 47.67480469 339.56689453 C46.60053223 340.18677246 45.52625977 340.80665039 44.41943359 341.4453125 C42.27103957 342.6845592 40.12228144 343.92317489 37.97314453 345.16113281 C32.88706552 348.09187085 27.8050024 351.0290087 22.73565674 353.98858643 C20.33660898 355.38867622 17.93548059 356.78517548 15.53417969 358.18139648 C13.83682243 359.1703269 12.14249567 360.16445291 10.44824219 361.15869141 C8.90910156 362.05297852 8.90910156 362.05297852 7.33886719 362.96533203 C6.43604004 363.49304199 5.53321289 364.02075195 4.60302734 364.56445312 C0.64783429 366.60448333 0.64783429 366.60448333 -1.82519531 366.81689453 C-4.06982422 365.88330078 -4.06982422 365.88330078 -6.55175781 364.37939453 C-7.95530518 363.54323608 -7.95530518 363.54323608 -9.38720703 362.69018555 C-10.39799316 362.07199951 -11.4087793 361.45381348 -12.45019531 360.81689453 C-14.6319656 359.51263656 -16.81427555 358.20928099 -18.99707031 356.90673828 C-20.12564453 356.22853027 -21.25421875 355.55032227 -22.41699219 354.8515625 C-27.80925639 351.63242712 -33.2544189 348.5068521 -38.70019531 345.37939453 C-40.88523952 344.12053745 -43.07013452 342.86142136 -45.25488281 341.60205078 C-46.33995117 340.9770166 -47.42501953 340.35198242 -48.54296875 339.70800781 C-53.97179474 336.58009305 -59.39838812 333.44831005 -64.82519531 330.31689453 C-66.99185114 329.06687574 -69.15851781 327.81687575 -71.32519531 326.56689453 C-90.82519531 315.31689453 -90.82519531 315.31689453 -110.32519531 304.06689453 C-111.39946777 303.44717773 -112.47374023 302.82746094 -113.58056641 302.18896484 C-115.72952488 300.94906916 -117.87829054 299.70883924 -120.02685547 298.46826172 C-125.10244298 295.53816879 -130.17993266 292.61153044 -135.26434326 289.69677734 C-137.66559762 288.31992927 -140.06575057 286.94116761 -142.46582031 285.56225586 C-144.16006134 284.5899275 -145.85589112 283.62036913 -147.55175781 282.65087891 C-148.57785156 282.06113281 -149.60394531 281.47138672 -150.66113281 280.86376953 C-151.56395996 280.3465332 -152.46678711 279.82929687 -153.39697266 279.29638672 C-154.59894287 278.56403809 -154.59894287 278.56403809 -155.82519531 277.81689453 C-156.52202549 277.44095059 -157.21885567 277.06500666 -157.93680191 276.67767048 C-160.2346323 274.4134455 -160.34077802 272.83706648 -160.45341086 269.67906684 C-160.46049013 268.63259741 -160.46049013 268.63259741 -160.4677124 267.56498718 C-160.48806368 266.8209282 -160.50841496 266.07686921 -160.52938294 265.31026298 C-160.59231567 262.80949226 -160.62638476 260.30918393 -160.66015625 257.80786133 C-160.69830985 256.01731938 -160.7378745 254.22680701 -160.77874756 252.43632507 C-160.90436321 246.54661108 -160.98539216 240.65667045 -161.05957031 234.76611328 C-161.0727596 233.76302132 -161.08594889 232.75992936 -161.09953785 231.72644067 C-161.22271822 222.25917034 -161.32951599 212.79184853 -161.39721298 203.32400799 C-161.4847222 191.22801855 -161.65223853 179.13916084 -161.93096328 167.04602307 C-162.12041548 158.53545332 -162.21700847 150.0267975 -162.24600053 141.5141862 C-162.26577332 136.43316935 -162.32541657 131.36018052 -162.48497772 126.28146935 C-163.409496 95.44411156 -163.409496 95.44411156 -157.46351242 87.7680378 C-151.81243945 82.93454414 -145.61556664 80.13910154 -138.6110878 77.79401398 C-134.95864887 76.51296343 -131.97528855 74.75564977 -128.70800781 72.69580078 C-126.78908879 71.58972145 -124.86982659 70.48423726 -122.95019531 69.37939453 C-120.76528993 68.12029652 -118.58039439 66.86118143 -116.39550781 65.60205078 C-115.31043945 64.9770166 -114.22537109 64.35198242 -113.10742188 63.70800781 C-107.67859589 60.58009305 -102.2520025 57.44831005 -96.82519531 54.31689453 C-94.65853949 53.06687574 -92.49187282 51.81687575 -90.32519531 50.56689453 C-89.25269531 49.94814453 -88.18019531 49.32939453 -87.07519531 48.69189453 C-51.32519531 28.06689453 -51.32519531 28.06689453 -48.06958008 26.1887207 C-45.92155485 24.94943186 -43.77360456 23.71001312 -41.62573242 22.47045898 C-36.53863982 19.53486886 -31.45077685 16.60063781 -26.36026001 13.67098999 C-23.94975784 12.28361358 -21.53968155 10.89549829 -19.12963867 9.50732422 C-17.42375564 8.52515638 -15.71725545 7.54406069 -14.01074219 6.56298828 C-12.98142578 5.97001953 -11.95210937 5.37705078 -10.89160156 4.76611328 C-9.9835376 4.24364014 -9.07547363 3.72116699 -8.13989258 3.18286133 C-2.47460229 -0.16038297 -2.47460229 -0.16038297 0 0 Z " fill="#05CE78" transform="translate(338.8251953125,630.18310546875)"/>
<path d="M0 0 C3.06121744 1.18905061 5.73867231 2.53869086 8.56933594 4.19604492 C10.09880859 5.08549805 10.09880859 5.08549805 11.65917969 5.99291992 C13.29306641 6.95391602 13.29306641 6.95391602 14.95996094 7.93432617 C16.11717066 8.60939256 17.27472951 9.28386079 18.43261719 9.95776367 C20.83566676 11.35698422 23.23720013 12.75875553 25.63769531 14.16235352 C31.14782938 17.38132001 36.68006452 20.56197646 42.20996094 23.74682617 C44.37411558 24.99536439 46.53817778 26.24406285 48.70214844 27.49291992 C53.06061482 30.00752053 57.42008285 32.52037278 61.78027344 35.03198242 C72.23202293 41.05429946 82.67295642 47.09351954 93.08496094 53.18432617 C102.80692479 58.87037779 112.5730096 64.47650793 122.36572266 70.03955078 C124.54424615 71.2794885 126.69915298 72.56170629 128.83036804 73.88130188 C132.15238179 75.81992779 135.45961091 77.05313566 139.10118103 78.27813721 C146.26557205 81.02474575 152.41375917 84.09781278 157.20996094 90.24682617 C162.13325442 101.73899139 160.46169274 116.50346332 160.20325208 128.69390774 C160.1158532 133.81015712 160.15230443 138.92578349 160.17063904 144.0425415 C160.18224445 152.62853871 160.09796421 161.20946911 159.9543457 169.79418945 C159.7896314 179.70201712 159.77061682 189.60193331 159.83075863 199.51076865 C159.88597923 209.07139352 159.8446411 218.62920848 159.75739861 228.18952179 C159.72166462 232.24568607 159.7182024 236.29994856 159.74093819 240.35619354 C159.76289043 245.13666984 159.69958706 249.90884442 159.57183266 254.68758965 C159.53833663 256.43432208 159.53322288 258.18187907 159.55945206 259.92873573 C159.69857678 270.66533832 159.69857678 270.66533832 157.20996094 275.24682617 C152.99692962 279.44527782 147.66276284 281.90909368 142.28572357 284.29655886 C139.3150627 285.65650334 136.57622086 287.29543928 133.77636719 288.97729492 C131.77549473 290.13038449 129.774187 291.28271907 127.77246094 292.43432617 C125.52375143 293.72987897 123.27505386 295.02545249 121.02636719 296.32104492 C119.89730957 296.97121582 118.76825195 297.62138672 117.60498047 298.29125977 C112.13826119 301.44014668 106.67418448 304.59361108 101.20996094 307.74682617 C94.68763654 311.51047983 88.1648233 315.2732724 81.63964844 319.03198242 C70.21241027 325.6163778 58.80354347 332.23013446 47.41992188 338.88964844 C38.25822161 344.23901137 29.04719289 349.50073582 19.82373047 354.74267578 C18.71626465 355.37310791 17.60879883 356.00354004 16.46777344 356.65307617 C14.87497559 357.55413086 14.87497559 357.55413086 13.25 358.47338867 C11.26616286 359.63068011 9.30745783 360.83250303 7.38085938 362.08276367 C1.00632517 366.21348087 1.00632517 366.21348087 -2.96191406 366.37963867 C-6.54251899 364.94541847 -9.77545367 363.15238953 -13.04003906 361.12182617 C-14.55607063 360.20497919 -16.07306164 359.28971749 -17.59082031 358.37573242 C-18.4192041 357.87444824 -19.24758789 357.37316406 -20.10107422 356.85668945 C-25.1060217 353.86026457 -30.17029734 350.96629805 -35.22753906 348.05932617 C-37.47630748 346.76387564 -39.72500447 345.46830109 -41.97363281 344.17260742 C-43.10269043 343.52243652 -44.23174805 342.87226562 -45.39501953 342.20239258 C-50.86173886 339.05350564 -56.32578793 335.89999353 -61.79003906 332.74682617 C-63.95669217 331.49680267 -66.12335886 330.2468027 -68.29003906 328.99682617 C-81.29003906 321.49682617 -94.29003906 313.99682617 -107.29003906 306.49682617 C-108.36398926 305.87727051 -109.43793945 305.25771484 -110.54443359 304.61938477 C-112.69656037 303.3777109 -114.84857979 302.13585095 -117.00048828 300.89379883 C-122.04034883 297.98515794 -127.08121398 295.07830719 -132.1260376 292.17828369 C-133.90753484 291.15406952 -135.68868228 290.12924966 -137.46972656 289.10424805 C-139.70080531 287.82049242 -141.93253479 286.53786678 -144.16503906 285.2565918 C-145.17824219 284.67329102 -146.19144531 284.08999023 -147.23535156 283.48901367 C-148.11723145 282.98225098 -148.99911133 282.47548828 -149.90771484 281.95336914 C-150.85888184 281.39020996 -151.81004883 280.82705078 -152.79003906 280.24682617 C-153.44988989 280.03450065 -154.10974072 279.82217512 -154.78958702 279.60341549 C-157.51146758 278.49308599 -158.91473965 277.53857089 -160.79003906 275.24682617 C-162.03093226 269.42361602 -161.80031663 263.62610526 -161.69824219 257.69677734 C-161.69598527 255.87340393 -161.6972529 254.05002324 -161.70178223 252.22665405 C-161.70407873 247.27812418 -161.65702963 242.33114391 -161.60119057 237.38297439 C-161.55119734 232.21139482 -161.54648212 227.03978014 -161.5369873 221.86799622 C-161.51211707 212.07530492 -161.44646091 202.28332767 -161.36619139 192.49095088 C-161.27678804 181.3424177 -161.23279023 170.19385051 -161.19262791 159.04504812 C-161.1089954 136.11191151 -160.96827171 113.17940884 -160.79003906 90.24682617 C-160.01056915 89.8017421 -159.23109924 89.35665802 -158.42800903 88.89808655 C-155.46793308 87.20769534 -152.50798874 85.51707409 -149.54812622 83.8263092 C-148.27982564 83.10187562 -147.01147632 82.37752737 -145.74307251 81.65327454 C-133.8106438 74.83977314 -121.90511199 67.98039142 -110.0078125 61.10571289 C-104.60333261 57.98358012 -99.19656494 54.86541413 -93.79003906 51.74682617 C-91.62336156 50.49684496 -89.45669489 49.24684496 -87.29003906 47.99682617 C-74.29003906 40.49682617 -74.29003906 40.49682617 -71.03955078 38.62158203 C-68.87446836 37.37247099 -66.70942924 36.12328488 -64.54443359 34.87402344 C-59.103882 31.73480308 -53.66256691 28.59692054 -48.21972656 25.46166992 C-36.18411757 18.5267134 -24.16440295 11.56604966 -12.17626953 4.54931641 C-10.7630542 3.72282593 -10.7630542 3.72282593 -9.32128906 2.87963867 C-8.49177734 2.39382324 -7.66226563 1.90800781 -6.80761719 1.4074707 C-2.96813817 -0.80125186 -2.96813817 -0.80125186 0 0 Z " fill="#05CE78" transform="translate(160.7900390625,315.753173828125)"/>
</svg>
